<svg xmlns="http://www.w3.org/2000/svg" viewBox="0 0 64 64">
  <defs>
    <linearGradient id="bg" x1="0" y1="0" x2="1" y2="1">
      <stop offset="0%" stop-color="#16a34a"/>
      <stop offset="100%" stop-color="#15803d"/>
    </linearGradient>
  </defs>
  <rect width="64" height="64" rx="12" fill="url(#bg)"/>
  <g transform="translate(32, 38) scale(0.9)" fill="none" stroke="#ffffff" stroke-width="3" stroke-linecap="round" stroke-linejoin="round">
    <circle cx="0" cy="-14" r="8"/>
    <polyline points="-4,-14 0,-17 4,-10"/>
    <rect x="-16" y="-2" width="32" height="22" rx="2" fill="#ffffff" stroke="none" opacity="0.15"/>
    <rect x="-16" y="-2" width="32" height="22" rx="2"/>
    <polyline points="-18,-2 0,-12 18,-2" fill="none"/>
    <rect x="-6" y="10" width="12" height="10" rx="1"/>
    <line x1="-16" y1="4" x2="-6" y2="4"/>
    <line x1="6" y1="4" x2="16" y2="4"/>
    <line x1="-16" y1="10" x2="-6" y2="10"/>
    <line x1="6" y1="10" x2="16" y2="10"/>
    <line x1="-8" y1="-2" x2="-8" y2="4"/>
    <line x1="0" y1="-2" x2="0" y2="4"/>
    <line x1="8" y1="-2" x2="8" y2="4"/>
  </g>
</svg>
